<svg viewBox="0 0 200 200" xmlns="http://www.w3.org/2000/svg">
    <path d="M44.7,-76.4C58.9,-69.2,71.8,-59.1,81.6,-46.6C91.4,-34.1,98.1,-19.2,95.8,-5.3C93.5,8.6,82.2,21.5,70.6,31.2C59,40.9,47.1,47.4,35.6,52.8C24.1,58.2,13,62.5,0.5,61.9C-12,61.3,-25.9,55.8,-38.2,48.6C-50.5,41.4,-61.2,32.5,-69.4,21.2C-77.6,9.9,-83.3,-3.8,-82.1,-16.6C-80.9,-29.4,-72.8,-41.3,-62.4,-50.8C-52,-60.3,-39.3,-67.4,-26.6,-73.8C-13.9,-80.2,-1.2,-85.9,12.3,-85.2C25.8,-84.5,40.5,-77.4,44.7,-76.4Z" transform="translate(100 100)" />
</svg>
